<svg width="32" height="32" viewBox="0 0 32 32" fill="none" xmlns="http://www.w3.org/2000/svg">
<path d="M9.93061 6.51562H22.0706C24.0006 6.51562 25.6206 7.98562 25.8306 9.92562L27.5106 25.2356C27.7606 27.5056 26.0006 29.4856 23.7506 29.4856H8.25061C5.99061 29.4856 4.24061 27.5056 4.49061 25.2356L6.17061 9.92562C6.38061 7.98562 8.00061 6.51562 9.93061 6.51562Z" stroke="#333333" stroke-width="1.4" stroke-miterlimit="10" stroke-linecap="round"/>
<path d="M22.0507 11.7061C22.0507 15.0861 19.3407 17.8261 16.0107 17.8261C12.6807 17.8261 9.9707 15.0861 9.9707 11.7061" fill="#FFE51F"/>
<path d="M22.0507 11.7061C22.0507 15.0861 19.3407 17.8261 16.0107 17.8261C12.6807 17.8261 9.9707 15.0861 9.9707 11.7061" stroke="#333333" stroke-width="1.4" stroke-miterlimit="10" stroke-linecap="round"/>
</svg>
