<svg width="32" height="32" viewBox="0 0 32 32" fill="none" xmlns="http://www.w3.org/2000/svg">
<path d="M27.0202 25.2806L15.0202 20.5906C14.6202 20.4306 14.3502 20.0606 14.3202 19.6406L13.9102 13.9506C13.8602 13.2606 14.4502 12.7006 15.1402 12.7706L26.4702 13.7306" fill="#FFE51F"/>
<path d="M27.0202 25.2806L15.0202 20.5906C14.6202 20.4306 14.3502 20.0606 14.3202 19.6406L13.9102 13.9506C13.8602 13.2606 14.4502 12.7006 15.1402 12.7706L26.4702 13.7306" stroke="#333333" stroke-width="1.4" stroke-miterlimit="10" stroke-linecap="round"/>
<path d="M17.2305 13.4609V21.1509" stroke="#333333" stroke-width="1.4" stroke-miterlimit="10" stroke-linecap="round"/>
<path d="M6.39973 9.42012C5.97973 9.67012 5.83973 10.2301 6.05973 10.6701L6.73973 12.0601C6.00973 13.1301 3.90973 17.5101 5.21973 23.1301L25.5397 29.4401C26.3897 29.6901 27.2397 29.0301 27.1997 28.1401L27.0797 25.1901L26.6497 14.7201C26.6497 14.7201 26.6497 14.4001 26.5797 13.8901C26.3197 11.7801 24.8797 6.40012 17.2097 6.77012H17.1797C16.8297 6.77012 10.7097 6.91012 6.39973 9.42012Z" stroke="#333333" stroke-width="1.4" stroke-miterlimit="10" stroke-linecap="round"/>
</svg>
