<svg width="32" height="32" viewBox="0 0 32 32" fill="none" xmlns="http://www.w3.org/2000/svg">
<path d="M10.1343 26.3496C10.1343 27.3534 9.60423 28.2783 8.73576 28.7746C7.86729 29.2708 6.80708 29.2708 5.93861 28.7746C5.07014 28.2783 4.54004 27.3534 4.54004 26.3496" fill="#FFE51F"/>
<path d="M10.1343 26.3496C10.1343 27.3534 9.60423 28.2783 8.73576 28.7746C7.86729 29.2708 6.80708 29.2708 5.93861 28.7746C5.07014 28.2783 4.54004 27.3534 4.54004 26.3496" stroke="#333333" stroke-width="1.4" stroke-miterlimit="10"/>
<path d="M28.6547 21.5665C27.8427 21.104 26.9404 20.8672 26.0381 20.8672C25.1358 20.8672 24.2334 21.104 23.4214 21.5665C21.7972 22.5026 20.8047 24.2283 20.8047 26.1006" stroke="#333333" stroke-width="1.4" stroke-miterlimit="10" stroke-linecap="round"/>
<path d="M7.55176 26.0898H20.6239" stroke="#333333" stroke-width="1.4" stroke-linecap="round" stroke-linejoin="round"/>
<path d="M24.4367 21.0815L21.7523 13.051C21.6734 12.8142 21.4478 12.6562 21.1996 12.6562H16.4287" stroke="#333333" stroke-width="1.4" stroke-miterlimit="10" stroke-linecap="round"/>
<path d="M23.2294 9.58805L21.2556 9.84746C20.9285 9.89258 20.6127 10.0054 20.3646 10.2084C20.1164 10.4114 19.9473 10.7159 19.9473 11.0543C19.9473 11.7197 20.5676 12.2611 21.3346 12.2611H23.3084C23.579 12.2611 23.7933 12.0694 23.7933 11.8438V10.0054C23.7933 9.8813 23.7369 9.76851 23.6242 9.68956C23.5227 9.61061 23.376 9.57677 23.2407 9.58805H23.2294Z" fill="#FFE51F" stroke="#333333" stroke-width="1.4" stroke-miterlimit="10" stroke-linecap="round"/>
<path d="M7.88965 15.1162H12.3786" stroke="#333333" stroke-width="1.4" stroke-miterlimit="10" stroke-linecap="round"/>
<path d="M26.0946 29.1678C27.7827 29.1678 29.1512 27.7993 29.1512 26.1112C29.1512 24.4232 27.7827 23.0547 26.0946 23.0547C24.4066 23.0547 23.0381 24.4232 23.0381 26.1112C23.0381 27.7993 24.4066 29.1678 26.0946 29.1678Z" fill="#FFE51F" stroke="#333333" stroke-width="1.4" stroke-miterlimit="10"/>
<path d="M3.68582 23.1611C3.66326 19.9128 4.6622 17.2741 7.77639 17.2804H12.6601C12.4797 17.8218 12.2654 18.5775 12.1751 19.367C12.0849 20.1001 12.0962 20.8558 12.4345 21.5213C12.7729 22.1867 13.5173 22.6604 14.4986 22.6604H17.3747C17.9724 22.6604 18.5025 22.4687 18.8973 22.1416C19.2921 21.8145 19.5628 21.3634 19.7432 20.8671C20.0929 19.8746 20.1267 18.679 20.0477 17.4947C19.8898 15.1262 19.2244 12.8027 19.2244 12.8027" stroke="#333333" stroke-width="1.4" stroke-linecap="round" stroke-linejoin="round"/>
<path d="M7.47295 21.2402C9.85278 21.2402 11.8153 23.3494 12.0973 26.1014H2.84863C3.1306 23.3607 5.09312 21.2402 7.47295 21.2402Z" stroke="#333333" stroke-width="1.4" stroke-linecap="round" stroke-linejoin="round"/>
</svg>
