<svg width="32" height="32" viewBox="0 0 32 32" fill="none" xmlns="http://www.w3.org/2000/svg">
<path d="M8.58301 24.6445H23.3717V25.7525C23.3717 27.4093 22.0285 28.7525 20.3717 28.7525H11.583C9.92615 28.7525 8.58301 27.4093 8.58301 25.7525V24.6445Z" fill="#FFE51F"/>
<path d="M16.0003 10.6766C13.1536 10.6766 12.1563 8.21071 11.9404 6.48294C11.8966 6.13193 11.5352 5.88942 11.2056 6.01794C10.418 6.3251 9.33827 6.73537 8.60601 6.97946C7.6201 7.3081 6.82589 8.75958 6.55203 9.44424L4.79622 14.7117C4.62878 15.214 4.88191 15.7597 5.37351 15.9564L8.60601 17.2494V26.7517C8.60601 27.8562 9.50144 28.7517 10.606 28.7517H21.3947C22.4992 28.7517 23.3947 27.8562 23.3947 26.7517V17.2494L26.6645 15.9414C27.1406 15.751 27.3961 15.232 27.2499 14.7405C26.631 12.6601 25.6079 9.47765 25.0379 8.62264C24.3806 7.63673 23.6685 7.11639 23.3947 6.97946L20.7839 6.00041C20.457 5.87783 20.1047 6.11968 20.0623 6.4662C19.8508 8.19473 18.8563 10.6766 16.0003 10.6766Z" stroke="#333333" stroke-width="1.4"/>
<path d="M8.99414 24.6445H22.9612" stroke="#333333" stroke-width="1.4" stroke-linecap="round"/>
<path d="M23.3941 17.661V13.9639M8.60547 17.661V13.9639" stroke="#333333" stroke-width="1.4" stroke-linecap="round"/>
</svg>
