<svg width="32" height="32" viewBox="0 0 32 32" fill="none" xmlns="http://www.w3.org/2000/svg">
<g clip-path="url(#clip0_3415_179007)">
<path d="M20.1605 9.0098V6.8698C20.1605 6.2798 17.8805 5.7998 15.0705 5.7998C12.2605 5.7998 9.98047 6.2798 9.98047 6.8698V9.0098C9.98047 9.5998 12.2605 10.0798 15.0705 10.0798C17.8805 10.0798 20.1605 9.5998 20.1605 9.0098Z" stroke="#333333" stroke-width="1.4" stroke-miterlimit="10" stroke-linecap="round"/>
<path d="M18.9098 11.9404H11.0998C8.72498 11.9404 6.7998 13.8656 6.7998 16.2404V25.0204C6.7998 27.3953 8.72498 29.3204 11.0998 29.3204H18.9098C21.2846 29.3204 23.2098 27.3953 23.2098 25.0204V16.2404C23.2098 13.8656 21.2846 11.9404 18.9098 11.9404Z" stroke="#333333" stroke-width="1.4" stroke-miterlimit="10" stroke-linecap="round"/>
<path d="M22.6597 24.2096H6.96973V17.3096H22.6597" fill="#FFE51F"/>
<path d="M22.6597 24.2096H6.96973V17.3096H22.6597" stroke="#333333" stroke-width="1.4" stroke-miterlimit="10" stroke-linecap="round"/>
</g>
<defs>
<clipPath id="clip0_3415_179007">
<rect width="18.01" height="25.12" fill="white" transform="translate(6 5)"/>
</clipPath>
</defs>
</svg>
