<svg width="32" height="32" viewBox="0 0 32 32" fill="none" xmlns="http://www.w3.org/2000/svg">
<path d="M28.1679 23.9892C28.0729 24.8557 27.2301 25.5205 26.2211 25.5205H5.13934C4.09475 25.5205 3.22821 24.8083 3.1926 23.918L2.21923 18.2439C2.17175 17.8641 2.51599 17.5317 2.95519 17.5317H5.28179C5.60229 17.5317 5.88718 17.7098 5.98214 17.9709C5.98214 17.9709 5.98214 17.9828 5.98214 17.9946L7.08609 21.4133C7.19292 21.7338 7.52529 21.9475 7.90514 21.9475H23.9302C24.3219 21.9475 24.6661 21.7219 24.7611 21.3896L25.7345 17.9828C25.8175 17.6979 26.1143 17.4961 26.4585 17.4961H29.0344C29.3291 17.4961 29.5804 17.6451 29.7028 17.8545C29.7727 17.9741 29.8006 18.1134 29.7704 18.2558L28.1679 23.9892Z" fill="#FFE51F" stroke="#333333" stroke-width="1.4" stroke-miterlimit="10" stroke-linecap="round"/>
<path d="M5.38965 29.1298L6.65978 26.9219" stroke="#333333" stroke-width="1.4" stroke-miterlimit="10" stroke-linecap="round"/>
<path d="M26.3277 29.1298L25.0576 26.9219" stroke="#333333" stroke-width="1.4" stroke-miterlimit="10" stroke-linecap="round"/>
<path d="M8.03613 21.7937L9.22317 12.1193C9.22317 10.505 10.5289 9.19922 12.1433 9.19922H19.7047C21.3191 9.19922 22.6248 10.505 22.6248 12.1193L23.8119 21.7937" stroke="#333333" stroke-width="1.4" stroke-miterlimit="10" stroke-linecap="round"/>
</svg>
