<svg width="32" height="32" viewBox="0 0 32 32" fill="none" xmlns="http://www.w3.org/2000/svg">
<path d="M27.6045 7.08017L27.6591 7.12393C28.1664 7.53034 28.2409 8.26909 27.8407 8.76857L24.0517 13.498L22.1709 11.9911L25.9599 7.26173C26.3663 6.75446 27.105 6.68001 27.6045 7.08017Z" stroke="#333333" stroke-width="1.4" stroke-miterlimit="10" stroke-linecap="round"/>
<path d="M10.8418 27.6201L12.1818 28.6901C13.3818 29.6501 15.1418 29.4601 16.1018 28.2601L25.7318 16.2301C26.1018 15.7601 26.0318 15.0901 25.5618 14.7101L20.6618 10.7901C20.1918 10.4201 19.5218 10.4901 19.1418 10.9601L12.7818 18.9001L11.7018 20.2001" stroke="#333333" stroke-width="1.4" stroke-miterlimit="10" stroke-linecap="round"/>
<path d="M11.2485 27.181C13.288 26.0417 14.0177 23.4647 12.8783 21.4252C11.739 19.3857 9.162 18.656 7.12251 19.7954C5.08302 20.9348 4.35332 23.5117 5.49269 25.5512C6.63205 27.5907 9.20902 28.3204 11.2485 27.181Z" fill="#FFE51F" stroke="#333333" stroke-width="1.4" stroke-miterlimit="10" stroke-linecap="round"/>
<path d="M13.382 22.6699L5.25195 24.4299" stroke="#333333" stroke-width="1.4" stroke-miterlimit="10" stroke-linecap="round"/>
</svg>
