<svg width="32" height="32" viewBox="0 0 32 32" fill="none" xmlns="http://www.w3.org/2000/svg">
<path d="M10.725 18.1602L7.58504 20.9801C6.86504 21.7001 6.41504 22.7001 6.41504 23.7901C6.41504 25.4901 7.59504 27.4802 9.81504 28.2202" stroke="#333333" stroke-width="1.4" stroke-miterlimit="10" stroke-linecap="round"/>
<path d="M14.125 29.0898H18.125" stroke="#333333" stroke-width="1.4" stroke-miterlimit="10" stroke-linecap="round"/>
<path d="M11.1454 7.4703C10.0854 6.7603 8.64538 7.0403 7.92538 8.1003C7.21538 9.1603 7.49538 10.6003 8.55538 11.3203L9.05538 11.6803" stroke="#333333" stroke-width="1.4" stroke-miterlimit="10" stroke-linecap="round"/>
<path d="M20.2852 7.36016C21.3852 6.70016 22.8051 7.06015 23.4651 8.15015C24.1251 9.24015 23.7652 10.6702 22.6752 11.3302" stroke="#333333" stroke-width="1.4" stroke-miterlimit="10" stroke-linecap="round"/>
<path d="M10.5948 18.0101C9.57484 16.8101 8.96484 15.2502 8.96484 13.5602C8.96484 9.75015 12.0548 6.66016 15.8648 6.66016C19.6748 6.66016 22.7648 9.75015 22.7648 13.5602C22.7648 15.2702 22.1448 16.8301 21.1148 18.0401" stroke="#333333" stroke-width="1.4" stroke-miterlimit="10" stroke-linecap="round"/>
<path d="M12.3148 29.7498C13.7508 29.7498 14.9148 28.5857 14.9148 27.1498C14.9148 25.7139 13.7508 24.5498 12.3148 24.5498C10.8789 24.5498 9.71484 25.7139 9.71484 27.1498C9.71484 28.5857 10.8789 29.7498 12.3148 29.7498Z" stroke="#333333" stroke-width="1.4" stroke-miterlimit="10" stroke-linecap="round"/>
<path d="M20.265 29.7498C21.701 29.7498 22.865 28.5857 22.865 27.1498C22.865 25.7139 21.701 24.5498 20.265 24.5498C18.8291 24.5498 17.665 25.7139 17.665 27.1498C17.665 28.5857 18.8291 29.7498 20.265 29.7498Z" stroke="#333333" stroke-width="1.4" stroke-miterlimit="10" stroke-linecap="round"/>
<path d="M21.2754 18.29L24.4154 21.11C25.1354 21.83 25.5854 22.83 25.5854 23.92C25.5854 25.62 24.5154 27.0701 23.0254 27.6301" stroke="#333333" stroke-width="1.4" stroke-miterlimit="10" stroke-linecap="round"/>
<path d="M15.9651 22.5905C18.4338 22.5905 20.4351 20.8399 20.4351 18.6805C20.4351 16.5211 18.4338 14.7705 15.9651 14.7705C13.4964 14.7705 11.4951 16.5211 11.4951 18.6805C11.4951 20.8399 13.4964 22.5905 15.9651 22.5905Z" fill="#FFE51F" stroke="#333333" stroke-width="1.4" stroke-miterlimit="10" stroke-linecap="round"/>
</svg>
