<svg width="32" height="32" viewBox="0 0 32 32" fill="none" xmlns="http://www.w3.org/2000/svg">
<path d="M27.6826 23.6752H3V26.0571H27.6826V23.6752Z" fill="#FCE531"/>
<path d="M27.7912 10.3187H3.519C3.23236 10.3187 3 10.5527 3 10.8413V25.2545C3 25.5431 3.23236 25.7771 3.519 25.7771H27.7912C28.0779 25.7771 28.3102 25.5431 28.3102 25.2545V10.8413C28.3102 10.5527 28.0779 10.3187 27.7912 10.3187Z" stroke="#333333" stroke-width="1.4" stroke-linecap="round" stroke-linejoin="round"/>
<path d="M23.6321 29.6176L17.7421 28.0256C17.2351 27.8919 16.873 27.4179 16.873 26.8832V26.4457H13.747V26.8832C13.747 27.4179 13.3849 27.8797 12.878 28.0256L7 29.6176" stroke="#333333" stroke-width="1.4" stroke-linecap="round" stroke-linejoin="round"/>
<path d="M11.3089 28.4509C11.3089 28.4509 14.3384 27.5637 15.1109 27.5637C15.9557 27.5637 18.937 28.3537 18.937 28.3537" stroke="#333333" stroke-width="1.4" stroke-linecap="round" stroke-linejoin="round"/>
</svg>
